<svg width="38" height="39" viewBox="0 0 38 39" fill="none" xmlns="http://www.w3.org/2000/svg">
<path d="M3.50407 14C5.28024 10.5496 11.5446 8.00001 19 8.00001C26.4554 8.00001 32.7198 10.5496 34.4959 14H37V38H1V14H3.50407Z" fill="white"/>
<path d="M5 18H33V35H5V18Z" fill="white"/>
<path d="M10.3831 14.3597L2.7509 1.14035M27.7509 13.8597L35.3831 0.640381M3.50407 14C5.28024 10.5496 11.5446 8.00001 19 8.00001C26.4554 8.00001 32.7198 10.5496 34.4959 14H37V38H1V14H3.50407ZM5 18H33V35H5V18Z" stroke="black"/>
</svg>
